<svg xmlns="http://www.w3.org/2000/svg" width="400" height="400" viewBox="0 0 400 400"><path d="M 200 0 c 70.8434 0 116.9651 0 149.2976 23.4909 a 123.0000 123.0000 0 0 1 27.2115 27.2115 c 23.4909 32.3325 23.4909 78.4542 23.4909 149.2976 L 400 200 c 0 70.8434 0 116.9651 -23.4909 149.2976 a 123.0000 123.0000 0 0 1 -27.2115 27.2115 c -32.3325 23.4909 -78.4542 23.4909 -149.2976 23.4909 L 200 400 c -70.8434 0 -116.9651 0 -149.2976 -23.4909 a 123.0000 123.0000 0 0 1 -27.2115 -27.2115 c -23.4909 -32.3325 -23.4909 -78.4542 -23.4909 -149.2976 L 0 200 c 0 -70.8434 0 -116.9651 23.4909 -149.2976 a 123.0000 123.0000 0 0 1 27.2115 -27.2115 c 32.3325 -23.4909 78.4542 -23.4909 149.2976 -23.4909 Z" fill="#ffffff"/><g transform="translate(59.99999999999997, 151.00634632819583) scale(0.25385312783318226, 0.25385312783318226)"><path xmlns="http://www.w3.org/2000/svg" fill="#0F1115" d="M416.473 0 198.54 385.66H0L170.17 84.522C196.549 37.842 262.377 0 317.203 0Zm486.875 96.415c0-53.249 44.444-96.415 99.27-96.415 54.826 0 99.27 43.166 99.27 96.415 0 53.248-44.444 96.415-99.27 96.415-54.826 0-99.27-43.167-99.27-96.415ZM453.699 0h198.54L434.306 385.66h-198.54Zm234.492 0h198.542L716.56 301.138c-26.378 46.68-92.207 84.522-147.032 84.522h-99.27Z"/></g></svg>