<svg xmlns="http://www.w3.org/2000/svg" width="400" height="400" viewBox="0 0 400 400"><path d="M 200 0 c 70.8434 0 116.9651 0 149.2976 23.4909 a 123.0000 123.0000 0 0 1 27.2115 27.2115 c 23.4909 32.3325 23.4909 78.4542 23.4909 149.2976 L 400 200 c 0 70.8434 0 116.9651 -23.4909 149.2976 a 123.0000 123.0000 0 0 1 -27.2115 27.2115 c -32.3325 23.4909 -78.4542 23.4909 -149.2976 23.4909 L 200 400 c -70.8434 0 -116.9651 0 -149.2976 -23.4909 a 123.0000 123.0000 0 0 1 -27.2115 -27.2115 c -23.4909 -32.3325 -23.4909 -78.4542 -23.4909 -149.2976 L 0 200 c 0 -70.8434 0 -116.9651 23.4909 -149.2976 a 123.0000 123.0000 0 0 1 27.2115 -27.2115 c 32.3325 -23.4909 78.4542 -23.4909 149.2976 -23.4909 Z" fill="#ffffff"/><g transform="translate(60, 60) scale(1.5555555555555556, 1.5555555555555556)">
<mask xmlns="http://www.w3.org/2000/svg" id="mask0_408_139" style="mask-type:alpha" maskUnits="userSpaceOnUse" x="0" y="0" width="180" height="180">
<circle cx="90" cy="90" r="90" fill="black"/>
</mask>
<g xmlns="http://www.w3.org/2000/svg" mask="url(#mask0_408_139)">
<circle cx="90" cy="90" r="87" fill="black" stroke="white" stroke-width="6"/>
<path d="M149.508 157.52L69.142 54H54V125.97H66.1136V69.3836L139.999 164.845C143.333 162.614 146.509 160.165 149.508 157.52Z" fill="url(#paint0_linear_408_139)"/>
<rect x="115" y="54" width="12" height="72" fill="url(#paint1_linear_408_139)"/>
</g>
<defs xmlns="http://www.w3.org/2000/svg">
<linearGradient id="paint0_linear_408_139" x1="109" y1="116.5" x2="144.5" y2="160.5" gradientUnits="userSpaceOnUse">
<stop stop-color="white"/>
<stop offset="1" stop-color="white" stop-opacity="0"/>
</linearGradient>
<linearGradient id="paint1_linear_408_139" x1="121" y1="54" x2="120.799" y2="106.875" gradientUnits="userSpaceOnUse">
<stop stop-color="white"/>
<stop offset="1" stop-color="white" stop-opacity="0"/>
</linearGradient>
</defs>
</g></svg>