<svg xmlns="http://www.w3.org/2000/svg" width="400" height="400" viewBox="0 0 400 400"><path d="M 200 0 c 70.8434 0 116.9651 0 149.2976 23.4909 a 123.0000 123.0000 0 0 1 27.2115 27.2115 c 23.4909 32.3325 23.4909 78.4542 23.4909 149.2976 L 400 200 c 0 70.8434 0 116.9651 -23.4909 149.2976 a 123.0000 123.0000 0 0 1 -27.2115 27.2115 c -32.3325 23.4909 -78.4542 23.4909 -149.2976 23.4909 L 200 400 c -70.8434 0 -116.9651 0 -149.2976 -23.4909 a 123.0000 123.0000 0 0 1 -27.2115 -27.2115 c -23.4909 -32.3325 -23.4909 -78.4542 -23.4909 -149.2976 L 0 200 c 0 -70.8434 0 -116.9651 23.4909 -149.2976 a 123.0000 123.0000 0 0 1 27.2115 -27.2115 c 32.3325 -23.4909 78.4542 -23.4909 149.2976 -23.4909 Z" fill="#ffffff"/><g transform="translate(60, 114.44444444444444) scale(5.185185185185185, 5.185185185185185)"><g xmlns="http://www.w3.org/2000/svg" clip-path="url(#a)"><path fill="#38bdf8" fill-rule="evenodd" d="M27 0c-7.2 0-11.7 3.6-13.5 10.8 2.7-3.6 5.85-4.95 9.45-4.05 2.054.513 3.522 2.004 5.147 3.653C30.744 13.09 33.808 16.2 40.5 16.2c7.2 0 11.7-3.6 13.5-10.8-2.7 3.6-5.85 4.95-9.45 4.05-2.054-.513-3.522-2.004-5.147-3.653C36.756 3.11 33.692 0 27 0zM13.5 16.2C6.3 16.2 1.8 19.8 0 27c2.7-3.6 5.85-4.95 9.45-4.05 2.054.514 3.522 2.004 5.147 3.653C17.244 29.29 20.308 32.4 27 32.4c7.2 0 11.7-3.6 13.5-10.8-2.7 3.6-5.85 4.95-9.45 4.05-2.054-.513-3.522-2.004-5.147-3.653C23.256 19.31 20.192 16.2 13.5 16.2z" clip-rule="evenodd"/></g><defs xmlns="http://www.w3.org/2000/svg"><clipPath id="a"><path fill="#fff" d="M0 0h54v32.4H0z"/></clipPath></defs></g></svg>